<svg width="54" height="50" viewBox="0 0 54 50" fill="none" xmlns="http://www.w3.org/2000/svg">
<g clip-path="url(#clip0_6119_97)">
<path d="M36.4997 13.4998H33.333C33.333 10.0007 30.4988 7.1665 26.9997 7.1665C23.5005 7.1665 20.6663 10.0007 20.6663 13.4998H17.4997C15.758 13.4998 14.333 14.9248 14.333 16.6665V35.6665C14.333 37.4082 15.758 38.8332 17.4997 38.8332H36.4997C38.2413 38.8332 39.6663 37.4082 39.6663 35.6665V16.6665C39.6663 14.9248 38.2413 13.4998 36.4997 13.4998ZM26.9997 10.3332C28.7413 10.3332 30.1663 11.7582 30.1663 13.4998H23.833C23.833 11.7582 25.258 10.3332 26.9997 10.3332ZM36.4997 35.6665H17.4997V16.6665H20.6663V19.8332C20.6663 20.704 21.3788 21.4165 22.2497 21.4165C23.1205 21.4165 23.833 20.704 23.833 19.8332V16.6665H30.1663V19.8332C30.1663 20.704 30.8788 21.4165 31.7497 21.4165C32.6205 21.4165 33.333 20.704 33.333 19.8332V16.6665H36.4997V35.6665Z" fill="#002F52"/>
</g>
<defs>
<clipPath id="clip0_6119_97">
<rect width="38" height="38" fill="white" transform="translate(8 4)"/>
</clipPath>
</defs>
</svg>
